<svg width="58" height="58" viewBox="0 0 58 58" fill="none" xmlns="http://www.w3.org/2000/svg">
<path d="M10.6974 49.3018L6.62476 3.625H51.3754L47.2973 49.2946L28.9729 54.375L10.6974 49.3018Z" fill="#E44F26"/>
<path d="M29 50.4926L43.8081 46.3873L47.2917 7.36053H29V50.4926Z" fill="#F1662A"/>
<path d="M29 24.3002H21.5869L21.0758 18.5636H29V12.9612H14.9531L15.0873 14.4656L16.4629 29.9026H29V24.3002ZM29 38.8491L28.9746 38.8564L22.736 37.1726L22.3373 32.7047H16.7131L17.4979 41.499L28.9746 44.6854L29 44.6781V38.8491Z" fill="#EBEBEB"/>
<path d="M28.98 24.3002V29.9026H35.8784L35.2295 37.1689L28.98 38.8546V44.6836L40.4658 41.499L40.5492 40.5529L41.865 25.8046L42.0028 24.3002H28.98ZM28.98 12.9612V18.5636H42.5121L42.6245 17.3057L42.88 14.4656L43.0142 12.9612H28.98Z" fill="white"/>
</svg>
