<svg width="58" height="58" viewBox="0 0 58 58" fill="none" xmlns="http://www.w3.org/2000/svg">
<g clip-path="url(#clip0_47_6)">
<path d="M0.637939 0.638H57.3619V57.3625H0.637939V0.638Z" fill="#F0DB4F"/>
<path d="M52.7196 43.8335C52.3041 41.2457 50.6167 39.0721 45.6183 37.0453C43.8819 36.2473 41.9461 35.6759 41.3693 34.36C41.1645 33.5943 41.1373 33.1629 41.2669 32.6993C41.6389 31.195 43.4347 30.726 44.8579 31.1573C45.7746 31.4646 46.6423 32.171 47.1657 33.2979C49.6135 31.7129 49.6085 31.7233 51.3177 30.634C50.6919 29.6638 50.358 29.2162 49.9483 28.8011C48.4761 27.1567 46.4701 26.3098 43.262 26.3746L41.5909 26.5908C39.9896 26.9954 38.4634 27.8359 37.5685 28.9629C34.8833 32.0097 35.6491 37.342 38.9166 39.5365C42.1356 41.9526 46.8644 42.5022 47.4684 44.7615C48.0561 47.5274 45.4357 48.4228 42.8311 48.1047C40.9117 47.7055 39.8441 46.7299 38.69 44.9559C36.5657 46.1852 36.5657 46.1852 34.3817 47.4413C34.8996 48.5737 35.4438 49.0861 36.312 50.0672C40.4209 54.235 50.7032 54.0302 52.5475 47.7218C52.6222 47.5052 53.1189 46.0606 52.7196 43.8335ZM31.4749 26.7086H26.1692L26.1475 40.4256C26.1475 43.3428 26.2984 46.0171 25.824 46.8368C25.0478 48.449 23.0363 48.2492 22.1197 47.9366C21.1867 47.478 20.7123 46.826 20.1626 45.9043C20.0117 45.6397 19.8984 45.4349 19.8604 45.419L15.5466 48.0607C16.2639 49.5329 17.3206 50.8107 18.6741 51.6409C20.6959 52.8543 23.4133 53.2263 26.2553 52.5738C28.105 52.0351 29.7009 50.919 30.5365 49.2203C31.7445 46.9932 31.4853 44.2975 31.4744 41.316C31.5016 36.4517 31.4749 31.5883 31.4749 26.7086Z" fill="#323330"/>
</g>
<defs>
<clipPath id="clip0_47_6">
<rect width="58" height="58" fill="white"/>
</clipPath>
</defs>
</svg>
