<svg width="58" height="58" viewBox="0 0 58 58" fill="none" xmlns="http://www.w3.org/2000/svg">
<path d="M10.6973 49.3018L6.62646 3.625H51.3735L47.2971 49.2946L28.9728 54.375L10.6973 49.3018Z" fill="#1572B6"/>
<path d="M29 50.4926L43.8081 46.3873L47.2917 7.36053H29V50.4926Z" fill="#33A9DC"/>
<path d="M29 23.9087H36.4131L36.9242 18.1721H29V12.5697H43.0469L42.9128 14.0723L41.5371 29.5111H29V23.9087Z" fill="white"/>
<path d="M29.0345 38.4577L29.0091 38.4649L22.7705 36.7793L22.3717 32.3115H16.7476L17.5324 41.1075L29.0073 44.2939L29.0345 44.2866V38.4577Z" fill="#EBEBEB"/>
<path d="M35.9363 29.2737L35.2621 36.7756L29.0144 38.4612V44.2902L40.4984 41.1075L40.5836 40.1614L41.5569 29.2737H35.9363Z" fill="white"/>
<path d="M29.02 12.5697V18.1721H15.4879L15.3755 16.9125L15.12 14.0723L14.9858 12.5697H29.02ZM29.0001 23.9087V29.5111H22.8394L22.727 28.2515L22.4733 25.4113L22.3392 23.9087H29.0001Z" fill="#EBEBEB"/>
</svg>
