<svg width="28" height="28" viewBox="0 0 28 28" fill="none" xmlns="http://www.w3.org/2000/svg">
<path fill-rule="evenodd" clip-rule="evenodd" d="M12.1147 0.77982C12.5867 0.308452 13.2182 0.0310917 13.8846 0.00245967C14.551 -0.0261724 15.204 0.196004 15.7147 0.625154L15.8854 0.781154L18.4187 3.31315H22C22.6726 3.31328 23.3202 3.56752 23.8132 4.02494C24.3063 4.48236 24.6082 5.10918 24.6587 5.77982L24.6667 5.97982V9.56115L27.2 12.0945C27.6718 12.5665 27.9494 13.1983 27.978 13.8651C28.0066 14.5318 27.7842 15.1851 27.3547 15.6958L27.1987 15.8652L24.6654 18.3985V21.9798C24.6656 22.6526 24.4115 23.3006 23.954 23.7939C23.4966 24.2872 22.8696 24.5894 22.1987 24.6398L22 24.6465H18.42L15.8867 27.1798C15.4146 27.6516 14.7829 27.9292 14.1161 27.9578C13.4494 27.9864 12.7961 27.764 12.2854 27.3345L12.116 27.1798L9.58269 24.6465H6.00002C5.32725 24.6467 4.67927 24.3926 4.18596 23.9352C3.69265 23.4777 3.39048 22.8507 3.34002 22.1798L3.33335 21.9798V18.3985L0.800021 15.8652C0.32828 15.3931 0.050685 14.7613 0.0220501 14.0946C-0.00658471 13.4278 0.215823 12.7746 0.645355 12.2638L0.800021 12.0945L3.33335 9.56115V5.97982C3.33348 5.30728 3.58772 4.65963 4.04514 4.1666C4.50256 3.67358 5.12938 3.37159 5.80002 3.32115L6.00002 3.31315H9.58136L12.1147 0.77982ZM18.1054 9.95715L12.4467 15.6158L10.0894 13.2585C9.83917 13.0085 9.49991 12.8681 9.14622 12.8682C8.79252 12.8683 8.45337 13.009 8.20336 13.2592C7.95334 13.5093 7.81296 13.8486 7.81309 14.2023C7.81321 14.556 7.95383 14.8951 8.20402 15.1452L11.4094 18.3505C11.5456 18.4868 11.7073 18.5948 11.8853 18.6686C12.0632 18.7423 12.254 18.7803 12.4467 18.7803C12.6394 18.7803 12.8301 18.7423 13.0081 18.6686C13.1861 18.5948 13.3478 18.4868 13.484 18.3505L19.9907 11.8425C20.2336 11.591 20.368 11.2542 20.3649 10.9046C20.3619 10.555 20.2217 10.2206 19.9744 9.9734C19.7272 9.72618 19.3928 9.58596 19.0432 9.58292C18.6936 9.57988 18.3568 9.71428 18.1054 9.95715Z" fill="#D8D8D8"/>
</svg>
