<svg width="27" height="27" viewBox="0 0 27 27" fill="none" xmlns="http://www.w3.org/2000/svg">
<path d="M27 12.9595V25.92C27 26.2064 26.8815 26.4811 26.6705 26.6837C26.4595 26.8862 26.1734 27 25.875 27H18C17.7016 27 17.4155 26.8862 17.2045 26.6837C16.9935 26.4811 16.875 26.2064 16.875 25.92V18.8997C16.875 18.7565 16.8157 18.6191 16.7102 18.5178C16.6048 18.4166 16.4617 18.3597 16.3125 18.3597H10.6875C10.5383 18.3597 10.3952 18.4166 10.2898 18.5178C10.1843 18.6191 10.125 18.7565 10.125 18.8997V25.92C10.125 26.2064 10.0065 26.4811 9.7955 26.6837C9.58452 26.8862 9.29837 27 9 27H1.125C0.826631 27 0.540484 26.8862 0.329505 26.6837C0.118527 26.4811 0 26.2064 0 25.92V12.9595C0.000276595 12.3867 0.237511 11.8375 0.659531 11.4326L11.9095 0.632172C12.3314 0.227385 12.9035 0 13.5 0C14.0965 0 14.6686 0.227385 15.0905 0.632172L26.3405 11.4326C26.7625 11.8375 26.9997 12.3867 27 12.9595Z" fill="#D8D8D8"/>
</svg>
